<svg width="238" height="42" viewBox="0 0 238 42" fill="none" xmlns="http://www.w3.org/2000/svg">
<path d="M25.9023 0H7.40839V8.11615H25.9023V0Z" fill="url(#paint0_linear_36_27953)"/>
<rect width="8.10362" height="8.10362" transform="matrix(-1 0 0 1 33.832 0.00585938)" fill="#ED1B36"/>
<path d="M13.3632 41.353H21.332V8.5902C21.332 8.28637 21.2128 7.99468 20.9999 7.77789L13.7991 0.444015C13.5203 0.159999 13.139 0 12.7409 0H-0.000930786V8.11615H12.4356C12.9479 8.11615 13.3632 8.53143 13.3632 9.04371V18.4469V41.353Z" fill="#EAEAEA"/>
<path d="M39.7884 41.4477H32L46.1804 1.05228H55.1882L69.3883 41.4477H61.5999L50.8417 9.3365H50.527L39.7884 41.4477ZM40.0441 25.6091H61.2852V31.4869H40.0441V25.6091Z" fill="#EAEAEA"/>
<path d="M75.8013 41.4477V1.05228H90.9061C94.0005 1.05228 96.5966 1.59141 98.6945 2.66968C100.806 3.74794 102.399 5.26014 103.474 7.20627C104.562 9.13926 105.106 11.3944 105.106 13.9717C105.106 16.5622 104.556 18.8108 103.454 20.7174C102.366 22.611 100.76 24.0772 98.6355 25.116C96.5114 26.1416 93.9022 26.6545 90.8078 26.6545H80.0495V20.5794H89.8244C91.6338 20.5794 93.1155 20.3295 94.2693 19.8298C95.4231 19.317 96.2754 18.5741 96.8261 17.601C97.3899 16.6148 97.6718 15.405 97.6718 13.9717C97.6718 12.5384 97.3899 11.3155 96.8261 10.303C96.2623 9.27733 95.4035 8.5015 94.2496 7.97552C93.0958 7.43639 91.6076 7.16683 89.7851 7.16683H83.098V41.4477H75.8013ZM96.6097 23.1435L106.581 41.4477H98.4388L88.6443 23.1435H96.6097Z" fill="#EAEAEA"/>
<path d="M112.93 1.05228H121.86L133.817 30.3232H134.29L146.247 1.05228H155.177V41.4477H148.175V13.6956H147.801L136.669 41.3294H131.438L120.306 13.6364H119.932V41.4477H112.93V1.05228Z" fill="#EAEAEA"/>
<path d="M169.403 41.4477H161.614L175.795 1.05228H184.802L199.003 41.4477H191.214L180.456 9.3365H180.141L169.403 41.4477ZM169.658 25.6091H190.899V31.4869H169.658V25.6091Z" fill="#EAEAEA"/>
<path d="M238 14.6818H230.644C230.435 13.472 230.048 12.4003 229.484 11.4667C228.92 10.52 228.219 9.71784 227.379 9.06036C226.54 8.40288 225.583 7.90977 224.508 7.58104C223.446 7.23915 222.299 7.0682 221.066 7.0682C218.876 7.0682 216.936 7.62049 215.244 8.72505C213.553 9.81646 212.229 11.4207 211.272 13.5378C210.314 15.6417 209.836 18.2125 209.836 21.25C209.836 24.3401 210.314 26.9438 211.272 29.0608C212.242 31.1648 213.566 32.7559 215.244 33.8341C216.936 34.8992 218.87 35.4318 221.046 35.4318C222.253 35.4318 223.38 35.274 224.429 34.9584C225.491 34.6297 226.442 34.1497 227.281 33.5185C228.133 32.8874 228.848 32.1115 229.425 31.1911C230.015 30.2706 230.421 29.2186 230.644 28.0352L238 28.0746C237.725 29.9945 237.128 31.7959 236.21 33.4791C235.306 35.1622 234.119 36.6481 232.65 37.9368C231.182 39.2123 229.464 40.2117 227.497 40.9349C225.531 41.645 223.348 42 220.948 42C217.408 42 214.248 41.1782 211.468 39.5345C208.689 37.8908 206.499 35.5173 204.899 32.414C203.3 29.3107 202.5 25.5894 202.5 21.25C202.5 16.8975 203.306 13.1762 204.919 10.086C206.532 6.98273 208.728 4.60924 211.508 2.96554C214.287 1.32185 217.434 0.5 220.948 0.5C223.19 0.5 225.275 0.815589 227.202 1.44677C229.13 2.07795 230.848 3.00499 232.355 4.2279C233.863 5.43766 235.102 6.92356 236.073 8.6856C237.056 10.4345 237.698 12.4332 238 14.6818Z" fill="#EAEAEA"/>
<defs>
<linearGradient id="paint0_linear_36_27953" x1="21.8578" y1="3.94182" x2="7.35106" y2="3.97725" gradientUnits="userSpaceOnUse">
<stop stop-color="#ED1B36" stop-opacity="0.7"/>
<stop offset="1" stop-color="#ED1B36" stop-opacity="0"/>
</linearGradient>
</defs>
</svg>
